<svg viewBox="0 0 91.4927 62.8043" xmlns="http://www.w3.org/2000/svg" xmlns:xlink="http://www.w3.org/1999/xlink" width="91.492676" height="62.804321" fill="none" customFrame="#000000">
	<rect id="Icons /  ApplePay" width="91.492752" height="62.804348" x="0.000000" y="-0.000183" />
	<path id="XMLID_34_" d="M21.4012 22.2477C22.6612 22.3534 23.9212 21.6137 24.7087 20.6759C25.4831 19.7117 25.9949 18.4173 25.8637 17.0965C24.7481 17.1493 23.3699 17.8362 22.5825 18.8004C21.8606 19.6325 21.2437 20.9797 21.4012 22.2477ZM36.3898 39.2597L36.3898 18.668L44.0678 18.668C48.0316 18.668 50.8009 21.4153 50.8009 25.4306C50.8009 29.4459 47.9791 32.2197 43.9628 32.2197L39.566 32.2197L39.566 39.2597L36.3898 39.2597ZM39.5667 21.3626L43.2285 21.3626C45.9847 21.3626 47.5597 22.842 47.5597 25.444C47.5597 28.046 45.9847 29.5385 43.2154 29.5385L39.5667 29.5385L39.5667 21.3626ZM25.8508 22.4988C24.7407 22.4345 23.7279 22.8347 22.9098 23.158C22.3833 23.366 21.9375 23.5422 21.5983 23.5422C21.2177 23.5422 20.7534 23.3566 20.2322 23.1482C19.5492 22.8752 18.7684 22.563 17.9495 22.578C16.0727 22.6044 14.3271 23.6743 13.3689 25.3782C11.4002 28.7859 12.8571 33.8314 14.7602 36.6051C15.6921 37.9788 16.8077 39.4845 18.2777 39.4317C19.6689 39.3789 20.2202 38.5203 21.9002 38.5203C22.768 38.5203 23.3187 38.7598 23.8472 38.9897C24.3498 39.2083 24.8324 39.4182 25.5489 39.4053C27.0714 39.3789 28.0295 38.0316 28.9614 36.658C30.0245 35.0994 30.4576 33.5805 30.4839 33.5012C30.4576 33.4748 27.5439 32.3521 27.5176 28.9708C27.4929 26.3064 29.5557 24.9564 29.8804 24.7439C29.9002 24.731 29.9135 24.7223 29.9195 24.7177C28.607 22.7629 26.5595 22.5516 25.8508 22.4988ZM61.2881 36.7901C60.4481 38.4015 58.5975 39.4186 56.6025 39.4186C53.6494 39.4186 51.5888 37.6487 51.5888 34.9806C51.5888 32.339 53.5838 30.82 57.2719 30.5955L61.2356 30.3577L61.2356 29.2218C61.2356 27.5444 60.1463 26.633 58.2038 26.633C56.6025 26.633 55.4344 27.4651 55.1982 28.7331L52.3369 28.7331C52.4288 26.0651 54.9225 24.1234 58.2957 24.1234C61.9313 24.1234 64.2938 26.0386 64.2938 29.0105L64.2938 39.2601L61.3538 39.2601L61.3538 36.7901L61.2881 36.7901ZM74.0453 40.0657C72.7722 43.6715 71.3154 44.8603 68.2179 44.8603C67.9816 44.8603 67.1941 44.8339 67.0104 44.781L67.0104 42.3111C67.2073 42.3375 67.6929 42.3639 67.9423 42.3639C69.3466 42.3639 70.1341 41.7696 70.6197 40.2242L70.9085 39.3128L65.5273 24.3215L68.8479 24.3215L72.5885 36.4863L72.6541 36.4863L76.3947 24.3215L79.6235 24.3215L74.0453 40.0657ZM57.4555 36.9749C55.7624 36.9749 54.6862 36.156 54.6862 34.9012C54.6862 33.6068 55.7231 32.8539 57.7049 32.7351L61.2355 32.5105L61.2355 33.6729C61.2355 35.6012 59.608 36.9749 57.4555 36.9749Z" fill="rgb(0,0,0)" fill-rule="evenodd" />
</svg>
