<svg viewBox="0 0 91.4927 62.8043" xmlns="http://www.w3.org/2000/svg" xmlns:xlink="http://www.w3.org/1999/xlink" width="91.492676" height="62.804321" fill="none" customFrame="#000000">
	<rect id="Icons /  Mastercard" width="91.492752" height="62.804348" x="0.000000" y="0.000000" fill="rgb(255,255,255)" fill-opacity="0" />
	<path id="Path" d="M54.1229 45.4963L37.7944 45.4963L37.7944 16.5054L54.1229 16.5054L54.1229 45.4963Z" fill="rgb(255,95,0)" fill-rule="nonzero" />
	<path id="Path" d="M23.066 18.4376C23.066 24.3185 25.8532 29.5571 30.1935 32.933C27.0196 35.4017 23.0138 36.8752 18.6605 36.8752C8.35432 36.8752 0 28.6205 0 18.4376C0 8.25465 8.35432 0 18.6605 0C23.0138 0 27.0196 1.47346 30.1935 3.94212C25.8532 7.31806 23.066 12.5566 23.066 18.4376Z" fill="rgb(235,0,27)" fill-rule="nonzero" transform="matrix(1,-1.21894e-16,-1.23038e-16,-1,15.7744,49.436)" />
	<path id="Path" d="M30.1947 18.4376C30.1947 8.25465 21.8404 0 11.5342 0C7.18085 0 3.17514 1.47346 0 3.94212C4.3415 7.31806 7.12864 12.5566 7.12864 18.4376C7.12864 24.3185 4.3415 29.5571 0 32.933C3.17514 35.4017 7.18085 36.8752 11.5342 36.8752C21.8404 36.8752 30.1947 28.6205 30.1947 18.4376Z" fill="rgb(247,158,27)" fill-rule="nonzero" transform="matrix(1,-1.21894e-16,-1.23038e-16,-1,45.9502,49.436)" />
</svg>
