<svg viewBox="0 0 91.4927 62.8044" xmlns="http://www.w3.org/2000/svg" xmlns:xlink="http://www.w3.org/1999/xlink" width="91.492676" height="62.804352" fill="none" customFrame="#000000">
	<rect id="Icons /  Visa" width="91.492752" height="62.804348" x="0.000000" y="0.000000" />
	<path id="polygon9" d="M40.6224 43.073L34.531 43.073L38.341 21.0903L44.432 21.0903L40.6224 43.073Z" fill="rgb(21,25,90)" fill-rule="nonzero" />
	<path id="path11" d="M62.704 21.6278C61.5025 21.183 59.5969 20.6919 57.2405 20.6919C51.2251 20.6919 46.9892 23.6851 46.9632 27.9645C46.9132 31.1219 49.996 32.8755 52.3017 33.9283C54.6584 35.004 55.4595 35.7062 55.4595 36.6651C55.4355 38.1378 53.5552 38.8166 51.8014 38.8166C49.3695 38.8166 48.0664 38.4666 46.0861 37.6473L45.284 37.296L44.4316 42.2307C45.8603 42.838 48.4924 43.377 51.2252 43.4006C57.6166 43.4006 61.7777 40.4537 61.827 35.8933C61.8513 33.3909 60.2234 31.4734 56.7139 29.9065C54.5834 28.9007 53.2787 28.2225 53.2787 27.1934C53.3037 26.2578 54.3822 25.2995 56.7872 25.2995C58.7675 25.2526 60.2224 25.6968 61.3246 26.1412L61.8756 26.3747L62.704 21.6278Z" fill="rgb(21,25,90)" fill-rule="nonzero" />
	<path id="path13" d="M73.6071 21.0903L78.3188 21.0903L83.233 43.0726L77.593 43.0726C77.593 43.0726 77.041 40.5469 76.8662 39.7751L69.0454 39.7751C68.8192 40.3595 67.767 43.0726 67.767 43.0726L61.3755 43.0726L70.4234 22.9142C71.0503 21.4876 72.1542 21.0903 73.6071 21.0903ZM70.7998 35.2853C71.3014 34.0225 73.2317 29.1348 73.2317 29.1348L73.2309 29.136C73.2287 29.1351 73.3066 28.9337 73.4198 28.6408C73.5947 28.1885 73.8539 27.5179 74.0332 27.0302L74.4588 28.9243C74.4588 28.9243 75.6124 34.1863 75.8629 35.2853L70.7998 35.2853Z" fill="rgb(21,25,90)" fill-rule="evenodd" />
	<path id="Combined Shape" d="M23.4779 36.0804L29.4433 21.0903L35.8844 21.0903L26.3098 43.0496L19.8684 43.0496L14.4392 23.9487C12.566 22.9268 10.4281 22.1049 8.03784 21.5345L8.1381 21.0903L17.9385 21.0903C19.2669 21.1367 20.3448 21.5342 20.6955 22.9382L22.8255 33.0386L22.826 33.0402L23.4779 36.0804Z" fill="rgb(21,25,90)" fill-rule="evenodd" />
</svg>
