<svg viewBox="0 0 91.4927 63.5797" xmlns="http://www.w3.org/2000/svg" xmlns:xlink="http://www.w3.org/1999/xlink" width="91.492676" height="63.579712" fill="none" customFrame="#000000">
	<rect id="Paypal/Variant2" width="91.492752" height="63.579708" x="0.000000" y="0.000000" fill="rgb(255,255,255)" fill-opacity="0" />
	<path id="Fill 7" d="M41.706 32.1968L42.1043 29.6401L41.217 29.6192L36.98 29.6192L39.9246 10.7527C39.9337 10.6956 39.9634 10.6425 40.0067 10.6048C40.0502 10.5671 40.1057 10.5464 40.1637 10.5464L47.308 10.5464C49.6799 10.5464 51.3167 11.045 52.1711 12.0294C52.5718 12.4912 52.8269 12.9739 52.9505 13.5049C53.08 14.0622 53.0821 14.7279 52.9558 15.54L52.9466 15.5991L52.9466 16.1195L53.3473 16.3489C53.6846 16.5297 53.9528 16.7367 54.1584 16.9736C54.5011 17.3686 54.7227 17.8705 54.8164 18.4653C54.9132 19.0771 54.8812 19.8053 54.7227 20.6297C54.5399 21.5779 54.2444 22.4038 53.8452 23.0794C53.4783 23.702 53.0106 24.2186 52.4553 24.6187C51.9251 24.999 51.2953 25.2877 50.5832 25.4724C49.893 25.654 49.1062 25.7456 48.2433 25.7456L47.6873 25.7456C47.2898 25.7456 46.9037 25.8902 46.6005 26.1496C46.2965 26.4143 46.0955 26.7761 46.0339 27.1717L45.9918 27.4019L45.288 31.9083L45.2562 32.0737C45.2477 32.126 45.2332 32.1521 45.2118 32.1698C45.1929 32.186 45.1656 32.1968 45.1389 32.1968L41.706 32.1968Z" fill="rgb(39.7107,53.1186,105.875)" fill-rule="evenodd" />
	<path id="Fill 8" d="M53.7269 15.6597C53.7058 15.7974 53.6812 15.9382 53.6539 16.0829C52.7118 20.971 49.4884 22.6597 45.3717 22.6597L43.2756 22.6597C42.7721 22.6597 42.3478 23.029 42.2695 23.5309L40.8923 32.358C40.8413 32.6877 41.0927 32.9845 41.4216 32.9845L45.1394 32.9845C45.5795 32.9845 45.9535 32.6614 46.0228 32.2227L46.0593 32.0319L46.7593 27.5432L46.8043 27.297C46.8728 26.8567 47.2476 26.5334 47.6878 26.5334L48.2437 26.5334C51.8456 26.5334 54.6654 25.0557 55.4895 20.7794C55.8337 18.993 55.6555 17.5014 54.7445 16.4524C54.4689 16.1361 54.1269 15.8735 53.7269 15.6597Z" fill="rgb(40.8281,143.225,194.394)" fill-rule="evenodd" />
	<path id="Fill 9" d="M52.7413 15.2621C52.5973 15.2196 52.4488 15.1813 52.2964 15.1466C52.1433 15.1127 51.9865 15.0827 51.825 15.0564C51.2598 14.9642 50.6405 14.9204 49.9772 14.9204L44.3775 14.9204C44.2395 14.9204 44.1085 14.9519 43.9914 15.0088C43.733 15.1343 43.5412 15.3813 43.4947 15.6838L42.3034 23.3082L42.2693 23.5305C42.3476 23.0286 42.7719 22.6593 43.2754 22.6593L45.3715 22.6593C49.4882 22.6593 52.7116 20.9697 53.6537 16.0824C53.6819 15.9378 53.7056 15.797 53.7267 15.6592C53.4884 15.5314 53.2302 15.4221 52.9523 15.3289C52.8836 15.3059 52.8127 15.2837 52.7413 15.2621Z" fill="rgb(34.3968,40.3267,79.064)" fill-rule="evenodd" />
	<path id="Fill 11" d="M43.4947 15.6839C43.5412 15.3814 43.733 15.1344 43.9913 15.0097C44.1093 14.9526 44.2394 14.9211 44.3775 14.9211L49.9771 14.9211C50.6404 14.9211 51.2597 14.9651 51.8249 15.0574C51.9864 15.0835 52.1432 15.1137 52.2964 15.1475C52.4487 15.182 52.5972 15.2206 52.7412 15.2628C52.8127 15.2844 52.8835 15.3068 52.9528 15.329C53.2308 15.4222 53.4892 15.5323 53.7275 15.6593C54.0078 13.8529 53.7251 12.623 52.7587 11.5093C51.693 10.283 49.77 9.7583 47.309 9.7583L40.1646 9.7583C39.6619 9.7583 39.2331 10.1276 39.1555 10.6303L36.1797 29.6909C36.1211 30.0679 36.4089 30.4081 36.7852 30.4081L41.1959 30.4081L43.4947 15.6839Z" fill="rgb(39.7107,53.1186,105.875)" fill-rule="evenodd" />
	<path id="Fill 1" d="M20.6562 37.3862L15.4472 37.3862C15.0907 37.3862 14.7875 37.6479 14.7318 38.0037L12.6251 51.501C12.5833 51.7675 12.7874 52.0074 13.0548 52.0074L15.5415 52.0074C15.898 52.0074 16.2011 51.7459 16.2568 51.3896L16.825 47.749C16.8798 47.3926 17.1836 47.1309 17.5395 47.1309L19.1884 47.1309C22.6196 47.1309 24.5999 45.453 25.1172 42.1282C25.3502 40.6735 25.127 39.5307 24.4529 38.7302C23.7126 37.8512 22.3994 37.3862 20.6562 37.3862ZM21.2568 42.316C20.972 44.2048 19.5439 44.2048 18.1631 44.2048L17.377 44.2048L17.9285 40.6774C17.9613 40.4641 18.1439 40.3072 18.3573 40.3072L18.7176 40.3072C19.6582 40.3072 20.5455 40.3072 21.004 40.849C21.2775 41.1721 21.3612 41.6524 21.2568 42.316L21.2568 42.316Z" fill="rgb(39.7107,53.1186,105.875)" fill-rule="evenodd" />
	<path id="Fill 2" d="M36.3596 42.1532L33.8652 42.1532C33.6527 42.1532 33.469 42.3101 33.4363 42.5233L33.3258 43.2283L33.1515 42.9728C32.6115 42.1808 31.4072 41.916 30.2055 41.916C27.4488 41.916 25.0946 44.0257 24.6361 46.9851C24.3978 48.4612 24.7366 49.8728 25.5654 50.8572C26.3256 51.7622 27.4132 52.1395 28.7071 52.1395C30.9283 52.1395 32.1597 50.6964 32.1597 50.6964L32.0485 51.3968C32.0067 51.6646 32.2109 51.9047 32.4767 51.9047L34.7234 51.9047C35.0808 51.9047 35.3825 51.643 35.4388 51.2866L36.7869 42.6596C36.8296 42.394 36.626 42.1532 36.3596 42.1532ZM32.8825 47.059C32.6418 48.4989 31.5109 49.4656 30.0683 49.4656C29.3439 49.4656 28.7651 49.2308 28.3933 48.7861C28.0246 48.3443 27.8847 47.7155 28.0018 47.015C28.2267 45.5874 29.3766 44.5891 30.7972 44.5891C31.5055 44.5891 32.0814 44.8271 32.4607 45.2755C32.8407 45.7289 32.9915 46.3616 32.8825 47.059L32.8825 47.059Z" fill="rgb(39.7107,53.1186,105.875)" fill-rule="evenodd" />
	<path id="Fill 3" d="M49.4528 42.3691L46.946 42.3691C46.7068 42.3691 46.4822 42.4892 46.3467 42.6901L42.8895 47.836L41.424 42.8909C41.3318 42.5815 41.0494 42.3691 40.7294 42.3691L38.2663 42.3691C37.9668 42.3691 37.759 42.6647 37.8541 42.9495L40.6152 51.137L38.0195 54.8399C37.8153 55.1316 38.021 55.5326 38.3736 55.5326L40.8772 55.5326C41.1149 55.5326 41.3372 55.4155 41.472 55.2187L49.8091 43.0579C50.0087 42.7671 49.8037 42.3691 49.4528 42.3691Z" fill="rgb(39.7107,53.1186,105.875)" fill-rule="evenodd" />
	<path id="Fill 4" d="M57.8093 37.3862L52.5997 37.3862C52.244 37.3862 51.9409 37.6479 51.8852 38.0037L49.7784 51.501C49.7366 51.7675 49.9408 52.0074 50.2066 52.0074L52.88 52.0074C53.1281 52.0074 53.3406 51.8244 53.3794 51.575L53.9774 47.749C54.0323 47.3926 54.3363 47.1309 54.6919 47.1309L56.3402 47.1309C59.7721 47.1309 61.7517 45.453 62.2697 42.1282C62.5035 40.6735 62.2789 39.5307 61.6047 38.7302C60.865 37.8512 59.5527 37.3862 57.8093 37.3862ZM58.4104 42.316C58.1262 44.2048 56.6981 44.2048 55.3165 44.2048L54.5313 44.2048L55.0835 40.6774C55.1161 40.4641 55.2975 40.3072 55.5115 40.3072L55.8718 40.3072C56.8116 40.3072 57.6997 40.3072 58.1582 40.849C58.4317 41.1721 58.5147 41.6524 58.4104 42.316L58.4104 42.316Z" fill="rgb(40.8281,143.225,194.394)" fill-rule="evenodd" />
	<path id="Fill 5" d="M73.5095 42.1532L71.0166 42.1532C70.8026 42.1532 70.6206 42.3101 70.5886 42.5233L70.4781 43.2283L70.303 42.9728C69.763 42.1808 68.5595 41.916 67.3576 41.916C64.6012 41.916 62.2478 44.0257 61.7893 46.9851C61.5516 48.4612 61.8889 49.8728 62.7175 50.8572C63.4794 51.7622 64.5653 52.1395 65.8595 52.1395C68.0804 52.1395 69.312 50.6964 69.312 50.6964L69.2008 51.3968C69.159 51.6646 69.363 51.9047 69.6305 51.9047L71.8766 51.9047C72.2322 51.9047 72.5354 51.643 72.5911 51.2866L73.9398 42.6596C73.981 42.394 73.7769 42.1532 73.5095 42.1532ZM70.0325 47.059C69.7934 48.4989 68.6607 49.4656 67.2181 49.4656C66.4953 49.4656 65.915 49.2308 65.5431 48.7861C65.1747 48.3443 65.036 47.7155 65.1516 47.015C65.378 45.5874 66.5264 44.5891 67.9471 44.5891C68.6554 44.5891 69.2312 44.8271 69.6105 45.2755C69.992 45.7289 70.1428 46.3616 70.0325 47.059L70.0325 47.059Z" fill="rgb(40.8281,143.225,194.394)" fill-rule="evenodd" />
	<path id="Fill 6" d="M76.2425 37.7573L74.1046 51.5017C74.0628 51.7681 74.2667 52.0081 74.5325 52.0081L76.682 52.0081C77.0393 52.0081 77.3423 51.7466 77.3971 51.3902L79.5054 37.8935C79.5474 37.627 79.3432 37.3862 79.0774 37.3862L76.6707 37.3862C76.4582 37.3869 76.2754 37.544 76.2425 37.7573Z" fill="rgb(40.8281,143.225,194.394)" fill-rule="evenodd" />
</svg>
