<svg viewBox="0 0 151 98" xmlns="http://www.w3.org/2000/svg" xmlns:xlink="http://www.w3.org/1999/xlink" width="151.000000" height="98.000000" fill="none" customFrame="#000000">
	<defs>
		<clipPath id="clipPath_0">
			<rect width="48.075474" height="48.075474" x="52.286133" y="12.943359" fill="rgb(255,255,255)" />
		</clipPath>
	</defs>
	<g id="Local delivery ">
		<g id="noun-delivery-1238125 1" clip-path="url(#clipPath_0)" customFrame="url(#clipPath_0)">
			<rect id="noun-delivery-1238125 1" width="48.075474" height="48.075474" x="52.286133" y="12.943359" fill="rgb(255,255,255)" fill-opacity="0" />
			<g id="Group">
				<g id="Group 7">
					<path id="Vector" d="M84.693 29.5293C84.4806 29.5296 84.3086 29.7015 84.3086 29.914L84.3086 33.6589C84.3086 33.8711 84.4806 34.0433 84.693 34.0433L89.9816 34.0433C90.1257 34.0433 90.2574 33.9631 90.3234 33.8351C90.3894 33.7072 90.3784 33.5532 90.2952 33.436L87.6315 29.6911C87.5593 29.5897 87.4426 29.5293 87.3182 29.5293L84.693 29.5293ZM85.0778 30.2984L87.1196 30.2984L89.236 33.2739L85.0774 33.2739L85.0774 30.2984L85.0778 30.2984Z" fill="rgb(111.646,111.646,111.646)" fill-rule="evenodd" />
					<path id="Vector" d="M61.6797 22.314C60.5479 22.314 59.6196 23.2422 59.6196 24.3741L59.6196 37.7239C59.6196 38.8558 60.5479 39.784 61.6797 39.784L64.3709 39.784C64.6281 41.2091 65.878 42.2973 67.3774 42.2973C68.876 42.2973 70.1273 41.2097 70.3848 39.784L84.4435 39.784C84.701 41.2094 85.9533 42.2973 87.4509 42.2973C88.9484 42.2973 90.2007 41.2094 90.4583 39.784L91.0718 39.784C91.9652 39.784 92.6954 39.0495 92.6954 38.1601L92.6954 33.2386L92.6957 33.2386C92.703 33.1836 92.6979 33.1275 92.6812 33.0746C92.6791 33.0666 92.6767 33.0588 92.6737 33.051L92.6729 33.051C92.6729 33.051 92.6729 33.0508 92.6727 33.0508C92.6555 33.0019 92.6284 32.9574 92.5932 32.9193L88.4577 27.1811L88.4577 27.1808C88.3856 27.0808 88.2697 27.0212 88.146 27.0212L82.7825 27.0177L82.7825 24.3754C82.7825 23.2436 81.8543 22.3153 80.7224 22.3153L61.6797 22.3153L61.6797 22.314ZM61.6797 23.0831L80.7224 23.0831C81.4358 23.0831 82.0134 23.6604 82.0134 24.3741L82.0134 39.0151L70.4251 39.0151C70.3087 37.4341 68.9845 36.1815 67.3775 36.1815C65.7708 36.1815 64.4463 37.4341 64.3299 39.0151L61.6798 39.0151C60.9664 39.0151 60.3888 38.4378 60.3888 37.7241L60.3888 24.3743C60.3888 23.6606 60.9662 23.0833 61.6798 23.0833L61.6797 23.0831ZM82.7828 27.7855L87.9491 27.789L91.9268 33.308L91.9268 38.16C91.9268 38.6298 91.5456 39.0148 91.0724 39.0148L90.4991 39.0148C90.3826 37.4338 89.0582 36.1812 87.4514 36.1812C85.8447 36.1812 84.5202 37.4338 84.4038 39.0148L82.7828 39.0148L82.7828 27.7855ZM67.3781 36.9507C68.6446 36.9507 69.6649 37.9705 69.6649 39.2415L69.6649 39.2845C69.6418 40.5307 68.6317 41.5284 67.3781 41.5284C66.1113 41.5284 65.0953 40.5121 65.0912 39.249L65.0912 39.2426C65.0912 37.9715 66.1115 36.9518 67.3781 36.9518L67.3781 36.9507ZM87.4516 36.9507C88.7181 36.9507 89.7384 37.9705 89.7384 39.2415C89.7384 40.5083 88.7182 41.5284 87.4516 41.5284C86.1851 41.5284 85.1648 40.5081 85.1648 39.2415C85.1648 37.9704 86.185 36.9507 87.4516 36.9507Z" fill="rgb(111.646,111.646,111.646)" fill-rule="evenodd" />
				</g>
				<path id="Vector" d="M71.9042 28.0892C71.8012 28.0875 71.702 28.1275 71.6287 28.1997C71.5555 28.2721 71.5142 28.3706 71.5142 28.4736C71.5142 28.5766 71.5555 28.6753 71.6287 28.7475C71.702 28.82 71.8012 28.8597 71.9042 28.8583L79.4473 28.8583C79.5503 28.8597 79.6496 28.82 79.7228 28.7475C79.7963 28.6753 79.8374 28.5766 79.8374 28.4736C79.8374 28.3706 79.7963 28.2721 79.7228 28.1997C79.6496 28.1275 79.5503 28.0876 79.4473 28.0892L71.9042 28.0892Z" fill="rgb(111.646,111.646,111.646)" fill-rule="evenodd" />
				<path id="Vector" d="M68.4531 31.5403C68.35 31.5387 68.2508 31.5787 68.1775 31.6511C68.1043 31.7233 68.063 31.822 68.063 31.9248C68.063 32.0278 68.1043 32.1265 68.1775 32.1987C68.2508 32.2711 68.35 32.3108 68.4531 32.3095L79.4472 32.3095C79.5503 32.3108 79.6495 32.2711 79.7228 32.1987C79.7963 32.1265 79.8373 32.0278 79.8373 31.9248C79.8373 31.822 79.7963 31.7233 79.7228 31.6511C79.6495 31.5787 79.5503 31.5387 79.4472 31.5403L68.4531 31.5403Z" fill="rgb(111.646,111.646,111.646)" fill-rule="evenodd" />
				<path id="Vector" d="M61.3112 44.1382C61.2082 44.1366 61.1089 44.1766 61.0357 44.2488C60.9625 44.3212 60.9211 44.4197 60.9211 44.5227C60.9211 44.6257 60.9625 44.7244 61.0357 44.7966C61.1089 44.869 61.2082 44.9087 61.3112 44.9074L90.5294 44.9074C90.6324 44.9087 90.7317 44.869 90.8049 44.7966C90.8785 44.7244 90.9195 44.6257 90.9195 44.5227C90.9195 44.4197 90.8785 44.3212 90.8049 44.2488C90.7317 44.1766 90.6324 44.1366 90.5294 44.1382L61.3112 44.1382Z" fill="rgb(111.646,111.646,111.646)" fill-rule="evenodd" />
			</g>
		</g>
		<path id="Local delivery in Sydney" d="M1.40785 95.2273L1.40785 85.7727L2.83434 85.7727L2.83434 93.9993L7.11843 93.9993L7.11843 95.2273L1.40785 95.2273ZM11.6218 95.3704C10.957 95.3704 10.3769 95.218 9.88139 94.9134C9.38589 94.6087 9.00118 94.1824 8.72727 93.6346C8.45336 93.0868 8.31641 92.4466 8.31641 91.7141C8.31641 90.9786 8.45336 90.3353 8.72727 89.7844C9.00118 89.2335 9.38589 88.8058 9.88139 88.5011C10.3769 88.1964 10.957 88.044 11.6218 88.044C12.2866 88.044 12.8667 88.1964 13.3622 88.5011C13.8577 88.8058 14.2424 89.2335 14.5163 89.7844C14.7902 90.3353 14.9272 90.9786 14.9272 91.7141C14.9272 92.4466 14.7902 93.0868 14.5163 93.6346C14.2424 94.1824 13.8577 94.6087 13.3622 94.9134C12.8667 95.218 12.2866 95.3704 11.6218 95.3704ZM11.6264 94.2116C12.0573 94.2116 12.4143 94.0978 12.6974 93.87C12.9806 93.6423 13.1899 93.3391 13.3253 92.9606C13.4638 92.582 13.533 92.165 13.533 91.7095C13.533 91.2571 13.4638 90.8416 13.3253 90.4631C13.1899 90.0814 12.9806 89.7752 12.6974 89.5444C12.4143 89.3136 12.0573 89.1982 11.6264 89.1982C11.1925 89.1982 10.8324 89.3136 10.5462 89.5444C10.263 89.7752 10.0522 90.0814 9.91371 90.4631C9.77829 90.8416 9.71058 91.2571 9.71058 91.7095C9.71058 92.165 9.77829 92.582 9.91371 92.9606C10.0522 93.3391 10.263 93.6423 10.5462 93.87C10.8324 94.0978 11.1925 94.2116 11.6264 94.2116ZM19.4548 95.3704C18.7685 95.3704 18.1776 95.215 17.6821 94.9041C17.1897 94.5902 16.8111 94.1578 16.5464 93.6069C16.2818 93.056 16.1494 92.4251 16.1494 91.7141C16.1494 90.994 16.2848 90.3584 16.5557 89.8075C16.8265 89.2535 17.2081 88.8211 17.7006 88.5103C18.193 88.1995 18.7731 88.044 19.441 88.044C19.9796 88.044 20.4597 88.1441 20.8813 88.3441C21.3029 88.5411 21.643 88.8181 21.9015 89.1751C22.1631 89.5321 22.3186 89.9491 22.3678 90.4261L21.0244 90.4261C20.9506 90.0938 20.7813 89.8075 20.5166 89.5675C20.255 89.3274 19.9041 89.2074 19.464 89.2074C19.0793 89.2074 18.7423 89.309 18.453 89.5121C18.1668 89.7121 17.9437 89.9983 17.7836 90.3707C17.6236 90.7401 17.5436 91.1771 17.5436 91.6818C17.5436 92.1989 17.6221 92.6451 17.779 93.0206C17.936 93.3961 18.1576 93.6869 18.4438 93.8931C18.7331 94.0993 19.0732 94.2024 19.464 94.2024C19.7256 94.2024 19.9626 94.1547 20.175 94.0593C20.3904 93.9608 20.5705 93.8208 20.7151 93.6392C20.8628 93.4576 20.9659 93.2391 21.0244 92.9837L22.3678 92.9837C22.3186 93.4422 22.1693 93.8516 21.92 94.2116C21.6707 94.5717 21.3368 94.8549 20.9182 95.0611C20.5028 95.2673 20.0149 95.3704 19.4548 95.3704ZM25.9075 95.3842C25.4582 95.3842 25.0519 95.3011 24.6887 95.1349C24.3256 94.9657 24.0378 94.721 23.8255 94.4009C23.6162 94.0808 23.5115 93.6884 23.5115 93.2237C23.5115 92.8236 23.5885 92.4943 23.7424 92.2358C23.8962 91.9773 24.104 91.7726 24.3656 91.6218C24.6272 91.471 24.9196 91.3571 25.2427 91.2802C25.5659 91.2032 25.8952 91.1448 26.2306 91.1048C26.6554 91.0555 27.0001 91.0155 27.2647 90.9847C27.5294 90.9509 27.7218 90.897 27.8418 90.8232C27.9618 90.7493 28.0218 90.6293 28.0218 90.4631L28.0218 90.4308C28.0218 90.0276 27.908 89.7152 27.6802 89.4936C27.4556 89.272 27.1201 89.1612 26.6738 89.1612C26.2091 89.1612 25.8429 89.2643 25.5751 89.4705C25.3104 89.6737 25.1273 89.8999 25.0257 90.1491L23.7285 89.8537C23.8824 89.4228 24.1071 89.0751 24.4025 88.8104C24.7011 88.5426 25.0442 88.3487 25.432 88.2287C25.8198 88.1056 26.2276 88.044 26.6554 88.044C26.9385 88.044 27.2386 88.0779 27.5556 88.1456C27.8757 88.2102 28.1742 88.3303 28.4512 88.5057C28.7312 88.6811 28.9605 88.9319 29.139 89.2582C29.3175 89.5813 29.4068 90.0014 29.4068 90.5185L29.4068 95.2273L28.0588 95.2273L28.0588 94.2578L28.0034 94.2578C27.9141 94.4363 27.7802 94.6117 27.6017 94.7841C27.4232 94.9564 27.194 95.0995 26.9139 95.2134C26.6338 95.3273 26.2984 95.3842 25.9075 95.3842ZM26.2076 94.2763C26.5892 94.2763 26.9154 94.2009 27.1863 94.0501C27.4602 93.8993 27.6679 93.7023 27.8095 93.4592C27.9541 93.213 28.0265 92.9498 28.0265 92.6697L28.0265 91.7557C27.9772 91.8049 27.8818 91.8511 27.7402 91.8942C27.6017 91.9342 27.4432 91.9696 27.2647 92.0004C27.0862 92.0281 26.9123 92.0542 26.7431 92.0788C26.5738 92.1004 26.4322 92.1188 26.3184 92.1342C26.0506 92.1681 25.8059 92.225 25.5843 92.305C25.3658 92.3851 25.1904 92.5005 25.0581 92.6513C24.9288 92.799 24.8642 92.996 24.8642 93.2422C24.8642 93.5838 24.9904 93.8423 25.2427 94.0178C25.4951 94.1901 25.8167 94.2763 26.2076 94.2763ZM32.6256 85.7727L32.6256 95.2273L31.2453 95.2273L31.2453 85.7727L32.6256 85.7727ZM40.5775 95.3658C40.0051 95.3658 39.4942 95.2196 39.0448 94.9272C38.5986 94.6317 38.2477 94.2116 37.9923 93.6669C37.7399 93.1191 37.6137 92.462 37.6137 91.6957C37.6137 90.9293 37.7414 90.2738 37.9969 89.729C38.2554 89.1843 38.6093 88.7673 39.0587 88.478C39.508 88.1887 40.0174 88.044 40.5867 88.044C41.0268 88.044 41.3808 88.1179 41.6485 88.2656C41.9194 88.4103 42.1286 88.5795 42.2764 88.7734C42.4272 88.9673 42.5441 89.1381 42.6272 89.2859L42.7103 89.2859L42.7103 85.7727L44.0906 85.7727L44.0906 95.2273L42.7426 95.2273L42.7426 94.1239L42.6272 94.1239C42.5441 94.2747 42.4241 94.4471 42.2671 94.641C42.1133 94.8349 41.9009 95.0041 41.6301 95.1488C41.3592 95.2934 41.0084 95.3658 40.5775 95.3658ZM40.8822 94.1886C41.2792 94.1886 41.6147 94.0839 41.8886 93.8746C42.1656 93.6623 42.3749 93.3684 42.5164 92.9929C42.6611 92.6174 42.7334 92.1804 42.7334 91.6818C42.7334 91.1894 42.6626 90.7585 42.521 90.3892C42.3795 90.0199 42.1717 89.7321 41.8978 89.5259C41.6239 89.3197 41.2854 89.2166 40.8822 89.2166C40.4667 89.2166 40.1205 89.3243 39.8435 89.5398C39.5665 89.7552 39.3572 90.0491 39.2156 90.4215C39.0771 90.7939 39.0079 91.214 39.0079 91.6818C39.0079 92.1558 39.0787 92.582 39.2203 92.9606C39.3618 93.3391 39.5711 93.6392 39.8481 93.8608C40.1282 94.0793 40.4729 94.1886 40.8822 94.1886ZM49.1168 95.3704C48.4182 95.3704 47.8165 95.2211 47.3118 94.9226C46.8101 94.621 46.4223 94.1978 46.1484 93.6531C45.8776 93.1052 45.7422 92.4635 45.7422 91.728C45.7422 91.0017 45.8776 90.3615 46.1484 89.8075C46.4223 89.2535 46.804 88.8211 47.2933 88.5103C47.7857 88.1995 48.3613 88.044 49.0199 88.044C49.42 88.044 49.8078 88.1102 50.1832 88.2425C50.5587 88.3749 50.8957 88.5826 51.1942 88.8658C51.4928 89.1489 51.7282 89.5167 51.9006 89.9691C52.0729 90.4184 52.1591 90.9647 52.1591 91.608L52.1591 92.0973L46.5224 92.0973L46.5224 91.0632L50.8065 91.0632C50.8065 90.7001 50.7326 90.3784 50.5849 90.0984C50.4371 89.8152 50.2294 89.5921 49.9616 89.429C49.697 89.2659 49.3861 89.1843 49.0291 89.1843C48.6413 89.1843 48.3028 89.2797 48.0135 89.4705C47.7273 89.6583 47.5057 89.9045 47.3487 90.2092C47.1948 90.5108 47.1179 90.8385 47.1179 91.1925L47.1179 92.0004C47.1179 92.4743 47.201 92.8775 47.3672 93.2099C47.5365 93.5423 47.7719 93.7962 48.0735 93.9716C48.3751 94.1439 48.7275 94.2301 49.1307 94.2301C49.3923 94.2301 49.6308 94.1932 49.8462 94.1193C50.0617 94.0424 50.2479 93.9285 50.4048 93.7777C50.5618 93.6269 50.6818 93.4407 50.7649 93.2191L52.0714 93.4545C51.9667 93.8392 51.779 94.1763 51.5082 94.4656C51.2404 94.7518 50.9034 94.9749 50.4972 95.1349C50.094 95.2919 49.6339 95.3704 49.1168 95.3704ZM55.0709 85.7727L55.0709 95.2273L53.6906 95.2273L53.6906 85.7727L55.0709 85.7727ZM56.9279 95.2273L56.9279 88.1364L58.3082 88.1364L58.3082 95.2273L56.9279 95.2273ZM57.625 87.0423C57.3849 87.0423 57.1787 86.9622 57.0064 86.8022C56.8371 86.6391 56.7525 86.4452 56.7525 86.2205C56.7525 85.9928 56.8371 85.7989 57.0064 85.6388C57.1787 85.4757 57.3849 85.3942 57.625 85.3942C57.8651 85.3942 58.0697 85.4757 58.239 85.6388C58.4113 85.7989 58.4975 85.9928 58.4975 86.2205C58.4975 86.4452 58.4113 86.6391 58.239 86.8022C58.0697 86.9622 57.8651 87.0423 57.625 87.0423ZM66.2313 88.1364L63.6599 95.2273L62.1826 95.2273L59.6066 88.1364L61.0885 88.1364L62.8843 93.593L62.9582 93.593L64.7494 88.1364L66.2313 88.1364ZM70.3434 95.3704C69.6448 95.3704 69.0431 95.2211 68.5384 94.9226C68.0367 94.621 67.6489 94.1978 67.375 93.6531C67.1042 93.1052 66.9688 92.4635 66.9688 91.728C66.9688 91.0017 67.1042 90.3615 67.375 89.8075C67.6489 89.2535 68.0305 88.8211 68.5199 88.5103C69.0123 88.1995 69.5878 88.044 70.2465 88.044C70.6465 88.044 71.0343 88.1102 71.4098 88.2425C71.7853 88.3749 72.1223 88.5826 72.4208 88.8658C72.7193 89.1489 72.9548 89.5167 73.1271 89.9691C73.2995 90.4184 73.3857 90.9647 73.3857 91.608L73.3857 92.0973L67.7489 92.0973L67.7489 91.0632L72.033 91.0632C72.033 90.7001 71.9592 90.3784 71.8114 90.0984C71.6637 89.8152 71.456 89.5921 71.1882 89.429C70.9235 89.2659 70.6127 89.1843 70.2557 89.1843C69.8679 89.1843 69.5294 89.2797 69.2401 89.4705C68.9538 89.6583 68.7322 89.9045 68.5753 90.2092C68.4214 90.5108 68.3445 90.8385 68.3445 91.1925L68.3445 92.0004C68.3445 92.4743 68.4276 92.8775 68.5938 93.2099C68.763 93.5423 68.9985 93.7962 69.3001 93.9716C69.6017 94.1439 69.9541 94.2301 70.3572 94.2301C70.6188 94.2301 70.8574 94.1932 71.0728 94.1193C71.2882 94.0424 71.4744 93.9285 71.6314 93.7777C71.7884 93.6269 71.9084 93.4407 71.9915 93.2191L73.2979 93.4545C73.1933 93.8392 73.0056 94.1763 72.7347 94.4656C72.467 94.7518 72.13 94.9749 71.7237 95.1349C71.3205 95.2919 70.8604 95.3704 70.3434 95.3704ZM74.9172 95.2273L74.9172 88.1364L76.2513 88.1364L76.2513 89.2628L76.3252 89.2628C76.4545 88.8812 76.6822 88.5811 77.0084 88.3626C77.3377 88.141 77.7101 88.0302 78.1256 88.0302C78.2118 88.0302 78.3134 88.0333 78.4303 88.0394C78.5503 88.0456 78.6442 88.0533 78.7119 88.0625L78.7119 89.3828C78.6565 89.3674 78.558 89.3505 78.4165 89.332C78.2749 89.3105 78.1333 89.2997 77.9917 89.2997C77.6655 89.2997 77.3747 89.369 77.1192 89.5075C76.8669 89.6429 76.6668 89.8322 76.5191 90.0753C76.3714 90.3153 76.2975 90.5892 76.2975 90.897L76.2975 95.2273L74.9172 95.2273ZM80.9948 97.8864C80.7886 97.8864 80.6008 97.8694 80.4315 97.8356C80.2623 97.8048 80.1361 97.771 80.053 97.734L80.3854 96.603C80.6378 96.6707 80.8624 96.6999 81.0594 96.6907C81.2564 96.6815 81.4303 96.6076 81.5811 96.4691C81.7349 96.3306 81.8704 96.1044 81.9873 95.7905L82.1581 95.3196L79.5637 88.1364L81.0409 88.1364L82.8367 93.6392L82.9106 93.6392L84.7064 88.1364L86.1883 88.1364L83.2661 96.1737C83.1307 96.543 82.9583 96.8553 82.749 97.1108C82.5397 97.3693 82.2905 97.5632 82.0012 97.6925C81.7119 97.8217 81.3764 97.8864 80.9948 97.8864ZM90.926 95.2273L90.926 88.1364L92.3063 88.1364L92.3063 95.2273L90.926 95.2273ZM91.623 87.0423C91.383 87.0423 91.1768 86.9622 91.0044 86.8022C90.8352 86.6391 90.7505 86.4452 90.7505 86.2205C90.7505 85.9928 90.8352 85.7989 91.0044 85.6388C91.1768 85.4757 91.383 85.3942 91.623 85.3942C91.8631 85.3942 92.0678 85.4757 92.237 85.6388C92.4094 85.7989 92.4956 85.9928 92.4956 86.2205C92.4956 86.4452 92.4094 86.6391 92.237 86.8022C92.0678 86.9622 91.8631 87.0423 91.623 87.0423ZM95.5436 91.017L95.5436 95.2273L94.1633 95.2273L94.1633 88.1364L95.4882 88.1364L95.4882 89.2905L95.5759 89.2905C95.739 88.915 95.9945 88.6134 96.3422 88.3857C96.6931 88.1579 97.1347 88.044 97.6672 88.044C98.1504 88.044 98.5735 88.1456 98.9367 88.3487C99.2999 88.5488 99.5815 88.8473 99.7815 89.2443C99.9816 89.6413 100.082 90.1322 100.082 90.717L100.082 95.2273L98.7013 95.2273L98.7013 90.8832C98.7013 90.3692 98.5674 89.9676 98.2996 89.6783C98.0319 89.3859 97.6641 89.2397 97.1963 89.2397C96.8762 89.2397 96.5915 89.309 96.3422 89.4474C96.096 89.5859 95.9006 89.7891 95.756 90.0568C95.6144 90.3215 95.5436 90.6416 95.5436 91.017ZM110.641 88.2564C110.591 87.8194 110.388 87.4808 110.031 87.2408C109.674 86.9976 109.225 86.8761 108.683 86.8761C108.295 86.8761 107.96 86.9376 107.677 87.0607C107.394 87.1808 107.174 87.3469 107.017 87.5593C106.863 87.7686 106.786 88.0071 106.786 88.2749C106.786 88.4995 106.838 88.6934 106.943 88.8565C107.051 89.0197 107.191 89.1566 107.363 89.2674C107.538 89.3751 107.726 89.4659 107.926 89.5398C108.126 89.6106 108.319 89.669 108.503 89.7152L109.426 89.9553C109.728 90.0291 110.037 90.1291 110.354 90.2553C110.671 90.3815 110.965 90.5477 111.236 90.7539C111.507 90.9601 111.725 91.2156 111.892 91.5202C112.061 91.8249 112.146 92.1896 112.146 92.6143C112.146 93.1499 112.007 93.6254 111.73 94.0408C111.456 94.4563 111.058 94.7841 110.534 95.0241C110.014 95.2642 109.385 95.3842 108.646 95.3842C107.938 95.3842 107.326 95.2719 106.809 95.0472C106.292 94.8226 105.887 94.504 105.595 94.0916C105.302 93.6761 105.141 93.1837 105.11 92.6143L106.541 92.6143C106.569 92.956 106.68 93.2406 106.874 93.4684C107.071 93.6931 107.321 93.8608 107.626 93.9716C107.934 94.0793 108.271 94.1332 108.637 94.1332C109.04 94.1332 109.399 94.0701 109.713 93.9439C110.03 93.8146 110.279 93.6361 110.461 93.4084C110.642 93.1776 110.733 92.9083 110.733 92.6005C110.733 92.3204 110.653 92.0911 110.493 91.9126C110.336 91.7341 110.122 91.5864 109.851 91.4695C109.583 91.3525 109.28 91.2494 108.942 91.1602L107.825 90.8555C107.067 90.6493 106.467 90.3461 106.024 89.946C105.584 89.5459 105.364 89.0166 105.364 88.358C105.364 87.8132 105.512 87.3377 105.807 86.9315C106.103 86.5252 106.503 86.2098 107.007 85.9851C107.512 85.7573 108.082 85.6435 108.716 85.6435C109.356 85.6435 109.92 85.7558 110.41 85.9805C110.902 86.2051 111.29 86.5144 111.573 86.9084C111.856 87.2992 112.004 87.7486 112.016 88.2564L110.641 88.2564ZM114.612 97.8864C114.406 97.8864 114.218 97.8694 114.049 97.8356C113.879 97.8048 113.753 97.771 113.67 97.734L114.003 96.603C114.255 96.6707 114.48 96.6999 114.677 96.6907C114.874 96.6815 115.047 96.6076 115.198 96.4691C115.352 96.3306 115.488 96.1044 115.604 95.7905L115.775 95.3196L113.181 88.1364L114.658 88.1364L116.454 93.6392L116.528 93.6392L118.324 88.1364L119.805 88.1364L116.883 96.1737C116.748 96.543 116.575 96.8553 116.366 97.1108C116.157 97.3693 115.908 97.5632 115.618 97.6925C115.329 97.8217 114.994 97.8864 114.612 97.8864ZM123.516 95.3658C122.944 95.3658 122.433 95.2196 121.983 94.9272C121.537 94.6317 121.186 94.2116 120.931 93.6669C120.678 93.1191 120.552 92.462 120.552 91.6957C120.552 90.9293 120.68 90.2738 120.935 89.729C121.194 89.1843 121.548 88.7673 121.997 88.478C122.446 88.1887 122.956 88.044 123.525 88.044C123.965 88.044 124.319 88.1179 124.587 88.2656C124.858 88.4103 125.067 88.5795 125.215 88.7734C125.366 88.9673 125.483 89.1381 125.566 89.2859L125.649 89.2859L125.649 85.7727L127.029 85.7727L127.029 95.2273L125.681 95.2273L125.681 94.1239L125.566 94.1239C125.483 94.2747 125.363 94.4471 125.206 94.641C125.052 94.8349 124.839 95.0041 124.569 95.1488C124.298 95.2934 123.947 95.3658 123.516 95.3658ZM123.821 94.1886C124.218 94.1886 124.553 94.0839 124.827 93.8746C125.104 93.6623 125.313 93.3684 125.455 92.9929C125.6 92.6174 125.672 92.1804 125.672 91.6818C125.672 91.1894 125.601 90.7585 125.46 90.3892C125.318 90.0199 125.11 89.7321 124.836 89.5259C124.562 89.3197 124.224 89.2166 123.821 89.2166C123.405 89.2166 123.059 89.3243 122.782 89.5398C122.505 89.7552 122.296 90.0491 122.154 90.4215C122.016 90.7939 121.946 91.214 121.946 91.6818C121.946 92.1558 122.017 92.582 122.159 92.9606C122.3 93.3391 122.51 93.6392 122.787 93.8608C123.067 94.0793 123.411 94.1886 123.821 94.1886ZM130.38 91.017L130.38 95.2273L128.999 95.2273L128.999 88.1364L130.324 88.1364L130.324 89.2905L130.412 89.2905C130.575 88.915 130.83 88.6134 131.178 88.3857C131.529 88.1579 131.971 88.044 132.503 88.044C132.986 88.044 133.409 88.1456 133.773 88.3487C134.136 88.5488 134.417 88.8473 134.617 89.2443C134.818 89.6413 134.918 90.1322 134.918 90.717L134.918 95.2273L133.537 95.2273L133.537 90.8832C133.537 90.3692 133.403 89.9676 133.136 89.6783C132.868 89.3859 132.5 89.2397 132.032 89.2397C131.712 89.2397 131.427 89.309 131.178 89.4474C130.932 89.5859 130.737 89.7891 130.592 90.0568C130.45 90.3215 130.38 90.6416 130.38 91.017ZM139.825 95.3704C139.126 95.3704 138.525 95.2211 138.02 94.9226C137.518 94.621 137.13 94.1978 136.856 93.6531C136.586 93.1052 136.45 92.4635 136.45 91.728C136.45 91.0017 136.586 90.3615 136.856 89.8075C137.13 89.2535 137.512 88.8211 138.001 88.5103C138.494 88.1995 139.069 88.044 139.728 88.044C140.128 88.044 140.516 88.1102 140.891 88.2425C141.267 88.3749 141.604 88.5826 141.902 88.8658C142.201 89.1489 142.436 89.5167 142.609 89.9691C142.781 90.4184 142.867 90.9647 142.867 91.608L142.867 92.0973L137.23 92.0973L137.23 91.0632L141.514 91.0632C141.514 90.7001 141.441 90.3784 141.293 90.0984C141.145 89.8152 140.937 89.5921 140.67 89.429C140.405 89.2659 140.094 89.1843 139.737 89.1843C139.349 89.1843 139.011 89.2797 138.721 89.4705C138.435 89.6583 138.214 89.9045 138.057 90.2092C137.903 90.5108 137.826 90.8385 137.826 91.1925L137.826 92.0004C137.826 92.4743 137.909 92.8775 138.075 93.2099C138.244 93.5423 138.48 93.7962 138.782 93.9716C139.083 94.1439 139.436 94.2301 139.839 94.2301C140.1 94.2301 140.339 94.1932 140.554 94.1193C140.77 94.0424 140.956 93.9285 141.113 93.7777C141.27 93.6269 141.39 93.4407 141.473 93.2191L142.779 93.4545C142.675 93.8392 142.487 94.1763 142.216 94.4656C141.948 94.7518 141.611 94.9749 141.205 95.1349C140.802 95.2919 140.342 95.3704 139.825 95.3704ZM145.068 97.8864C144.862 97.8864 144.674 97.8694 144.505 97.8356C144.336 97.8048 144.209 97.771 144.126 97.734L144.459 96.603C144.711 96.6707 144.936 96.6999 145.133 96.6907C145.33 96.6815 145.503 96.6076 145.654 96.4691C145.808 96.3306 145.944 96.1044 146.061 95.7905L146.231 95.3196L143.637 88.1364L145.114 88.1364L146.91 93.6392L146.984 93.6392L148.78 88.1364L150.262 88.1364L147.339 96.1737C147.204 96.543 147.032 96.8553 146.822 97.1108C146.613 97.3693 146.364 97.5632 146.074 97.6925C145.785 97.8217 145.45 97.8864 145.068 97.8864Z" fill="rgb(111.646,111.646,111.646)" fill-rule="nonzero" />
		<circle id="Ellipse 10" cx="75.8614044" cy="32.820755" r="32.320755" stroke="rgb(204,204,204)" stroke-width="1.000000" />
	</g>
</svg>
