<svg viewBox="0 0 83 98" xmlns="http://www.w3.org/2000/svg" xmlns:xlink="http://www.w3.org/1999/xlink" width="83.000000" height="98.000000" fill="none" customFrame="#000000">
	<defs>
		<clipPath id="clipPath_1">
			<rect width="34.133507" height="34.133507" x="26.094727" y="16.641602" fill="rgb(255,255,255)" />
		</clipPath>
	</defs>
	<g id="Store pickup">
		<path id="Store Pickup" d="M8.35254 88.2564C8.3033 87.8194 8.10017 87.4808 7.74316 87.2408C7.38616 86.9976 6.93682 86.8761 6.39515 86.8761C6.00737 86.8761 5.6719 86.9376 5.38876 87.0607C5.10562 87.1808 4.88556 87.3469 4.7286 87.5593C4.57472 87.7686 4.49778 88.0071 4.49778 88.2749C4.49778 88.4995 4.5501 88.6934 4.65474 88.8565C4.76246 89.0197 4.90249 89.1566 5.07484 89.2674C5.25027 89.3751 5.438 89.4659 5.63805 89.5398C5.8381 89.6106 6.03045 89.669 6.21511 89.7152L7.13841 89.9553C7.44002 90.0291 7.74932 90.1291 8.06632 90.2553C8.38332 90.3815 8.67723 90.5477 8.94806 90.7539C9.2189 90.9601 9.43741 91.2156 9.60361 91.5202C9.77287 91.8249 9.85751 92.1896 9.85751 92.6143C9.85751 93.1499 9.71902 93.6254 9.44203 94.0408C9.16812 94.4563 8.76956 94.7841 8.24636 95.0241C7.72624 95.2642 7.09686 95.3842 6.35822 95.3842C5.65036 95.3842 5.03791 95.2719 4.52086 95.0472C4.00382 94.8226 3.59911 94.504 3.30673 94.0916C3.01435 93.6761 2.85278 93.1837 2.822 92.6143L4.25311 92.6143C4.28081 92.956 4.3916 93.2406 4.58549 93.4684C4.78246 93.6931 5.03329 93.8608 5.33798 93.9716C5.64574 94.0793 5.98275 94.1332 6.34899 94.1332C6.75216 94.1332 7.11071 94.0701 7.42463 93.9439C7.74163 93.8146 7.99092 93.6361 8.1725 93.4084C8.35408 93.1776 8.44487 92.9083 8.44487 92.6005C8.44487 92.3204 8.36485 92.0911 8.20481 91.9126C8.04785 91.7341 7.83396 91.5864 7.56312 91.4695C7.29537 91.3525 6.99222 91.2494 6.65368 91.1602L5.53649 90.8555C4.77939 90.6493 4.17924 90.3461 3.73606 89.946C3.29596 89.5459 3.07591 89.0166 3.07591 88.358C3.07591 87.8132 3.22363 87.3377 3.51909 86.9315C3.81454 86.5252 4.21464 86.2098 4.71937 85.9851C5.22411 85.7573 5.79347 85.6435 6.42747 85.6435C7.06762 85.6435 7.63237 85.7558 8.12172 85.9805C8.61414 86.2051 9.00192 86.5144 9.28507 86.9084C9.56821 87.2992 9.71594 87.7486 9.72825 88.2564L8.35254 88.2564ZM14.7614 88.1364L14.7614 89.2443L10.8881 89.2443L10.8881 88.1364L14.7614 88.1364ZM11.9268 86.4375L13.3072 86.4375L13.3072 93.1452C13.3072 93.413 13.3472 93.6146 13.4272 93.75C13.5072 93.8823 13.6103 93.9731 13.7365 94.0224C13.8658 94.0685 14.0058 94.0916 14.1566 94.0916C14.2674 94.0916 14.3643 94.0839 14.4474 94.0685C14.5305 94.0531 14.5952 94.0408 14.6413 94.0316L14.8906 95.1719C14.8106 95.2027 14.6967 95.2334 14.549 95.2642C14.4013 95.2981 14.2166 95.3165 13.995 95.3196C13.6319 95.3258 13.2933 95.2611 12.9794 95.1257C12.6655 94.9903 12.4116 94.781 12.2177 94.4979C12.0238 94.2147 11.9268 93.8593 11.9268 93.4315L11.9268 86.4375ZM19.199 95.3704C18.5342 95.3704 17.954 95.218 17.4585 94.9134C16.963 94.6087 16.5783 94.1824 16.3044 93.6346C16.0305 93.0868 15.8936 92.4466 15.8936 91.7141C15.8936 90.9786 16.0305 90.3353 16.3044 89.7844C16.5783 89.2335 16.963 88.8058 17.4585 88.5011C17.954 88.1964 18.5342 88.044 19.199 88.044C19.8637 88.044 20.4439 88.1964 20.9394 88.5011C21.4349 88.8058 21.8196 89.2335 22.0935 89.7844C22.3674 90.3353 22.5044 90.9786 22.5044 91.7141C22.5044 92.4466 22.3674 93.0868 22.0935 93.6346C21.8196 94.1824 21.4349 94.6087 20.9394 94.9134C20.4439 95.218 19.8637 95.3704 19.199 95.3704ZM19.2036 94.2116C19.6344 94.2116 19.9914 94.0978 20.2746 93.87C20.5577 93.6423 20.767 93.3391 20.9024 92.9606C21.0409 92.582 21.1102 92.165 21.1102 91.7095C21.1102 91.2571 21.0409 90.8416 20.9024 90.4631C20.767 90.0814 20.5577 89.7752 20.2746 89.5444C19.9914 89.3136 19.6344 89.1982 19.2036 89.1982C18.7696 89.1982 18.4095 89.3136 18.1233 89.5444C17.8402 89.7752 17.6294 90.0814 17.4909 90.4631C17.3554 90.8416 17.2877 91.2571 17.2877 91.7095C17.2877 92.165 17.3554 92.582 17.4909 92.9606C17.6294 93.3391 17.8402 93.6423 18.1233 93.87C18.4095 94.0978 18.7696 94.2116 19.2036 94.2116ZM24.0451 95.2273L24.0451 88.1364L25.3793 88.1364L25.3793 89.2628L25.4531 89.2628C25.5824 88.8812 25.8101 88.5811 26.1364 88.3626C26.4657 88.141 26.8381 88.0302 27.2536 88.0302C27.3397 88.0302 27.4413 88.0333 27.5582 88.0394C27.6783 88.0456 27.7721 88.0533 27.8398 88.0625L27.8398 89.3828C27.7844 89.3674 27.686 89.3505 27.5444 89.332C27.4028 89.3105 27.2612 89.2997 27.1197 89.2997C26.7934 89.2997 26.5026 89.369 26.2472 89.5075C25.9948 89.6429 25.7947 89.8322 25.647 90.0753C25.4993 90.3153 25.4254 90.5892 25.4254 90.897L25.4254 95.2273L24.0451 95.2273ZM31.8366 95.3704C31.1379 95.3704 30.5363 95.2211 30.0315 94.9226C29.5299 94.621 29.1421 94.1978 28.8682 93.6531C28.5973 93.1052 28.4619 92.4635 28.4619 91.728C28.4619 91.0017 28.5973 90.3615 28.8682 89.8075C29.1421 89.2535 29.5237 88.8211 30.0131 88.5103C30.5055 88.1995 31.081 88.044 31.7396 88.044C32.1397 88.044 32.5275 88.1102 32.903 88.2425C33.2784 88.3749 33.6154 88.5826 33.914 88.8658C34.2125 89.1489 34.4479 89.5167 34.6203 89.9691C34.7926 90.4184 34.8788 90.9647 34.8788 91.608L34.8788 92.0973L29.2421 92.0973L29.2421 91.0632L33.5262 91.0632C33.5262 90.7001 33.4523 90.3784 33.3046 90.0984C33.1569 89.8152 32.9491 89.5921 32.6814 89.429C32.4167 89.2659 32.1059 89.1843 31.7488 89.1843C31.3611 89.1843 31.0225 89.2797 30.7332 89.4705C30.447 89.6583 30.2254 89.9045 30.0684 90.2092C29.9146 90.5108 29.8376 90.8385 29.8376 91.1925L29.8376 92.0004C29.8376 92.4743 29.9207 92.8775 30.0869 93.2099C30.2562 93.5423 30.4916 93.7962 30.7932 93.9716C31.0948 94.1439 31.4472 94.2301 31.8504 94.2301C32.112 94.2301 32.3505 94.1932 32.566 94.1193C32.7814 94.0424 32.9676 93.9285 33.1246 93.7777C33.2815 93.6269 33.4015 93.4407 33.4846 93.2191L34.7911 93.4545C34.6865 93.8392 34.4987 94.1763 34.2279 94.4656C33.9601 94.7518 33.6231 94.9749 33.2169 95.1349C32.8137 95.2919 32.3536 95.3704 31.8366 95.3704ZM39.9616 95.2273L39.9616 85.7727L43.3316 85.7727C44.0671 85.7727 44.6765 85.9066 45.1597 86.1744C45.6429 86.4421 46.0045 86.8084 46.2446 87.2731C46.4846 87.7347 46.6047 88.2549 46.6047 88.8335C46.6047 89.4151 46.4831 89.9383 46.24 90.4031C45.9999 90.8647 45.6367 91.2309 45.1505 91.5018C44.6673 91.7695 44.0595 91.9034 43.327 91.9034L41.0095 91.9034L41.0095 90.6939L43.1977 90.6939C43.6624 90.6939 44.0394 90.6139 44.3287 90.4538C44.618 90.2907 44.8304 90.0691 44.9658 89.7891C45.1012 89.509 45.1689 89.1905 45.1689 88.8335C45.1689 88.4764 45.1012 88.1594 44.9658 87.8825C44.8304 87.6055 44.6165 87.3885 44.3241 87.2315C44.0348 87.0746 43.6532 86.9961 43.1792 86.9961L41.3881 86.9961L41.3881 95.2273L39.9616 95.2273ZM48.1662 95.2273L48.1662 88.1364L49.5465 88.1364L49.5465 95.2273L48.1662 95.2273ZM48.8633 87.0423C48.6232 87.0423 48.417 86.9622 48.2447 86.8022C48.0754 86.6391 47.9908 86.4452 47.9908 86.2205C47.9908 85.9928 48.0754 85.7989 48.2447 85.6388C48.417 85.4757 48.6232 85.3942 48.8633 85.3942C49.1033 85.3942 49.308 85.4757 49.4773 85.6388C49.6496 85.7989 49.7358 85.9928 49.7358 86.2205C49.7358 86.4452 49.6496 86.6391 49.4773 86.8022C49.308 86.9622 49.1033 87.0423 48.8633 87.0423ZM54.3904 95.3704C53.704 95.3704 53.1131 95.215 52.6176 94.9041C52.1252 94.5902 51.7467 94.1578 51.482 93.6069C51.2173 93.056 51.085 92.4251 51.085 91.7141C51.085 90.994 51.2204 90.3584 51.4912 89.8075C51.762 89.2535 52.1437 88.8211 52.6361 88.5103C53.1285 88.1995 53.7087 88.044 54.3765 88.044C54.9151 88.044 55.3952 88.1441 55.8168 88.3441C56.2385 88.5411 56.5786 88.8181 56.8371 89.1751C57.0987 89.5321 57.2541 89.9491 57.3034 90.4261L55.96 90.4261C55.8861 90.0938 55.7168 89.8075 55.4521 89.5675C55.1905 89.3274 54.8397 89.2074 54.3996 89.2074C54.0149 89.2074 53.6779 89.309 53.3886 89.5121C53.1024 89.7121 52.8792 89.9983 52.7192 90.3707C52.5592 90.7401 52.4791 91.1771 52.4791 91.6818C52.4791 92.1989 52.5576 92.6451 52.7146 93.0206C52.8715 93.3961 53.0931 93.6869 53.3793 93.8931C53.6686 94.0993 54.0087 94.2024 54.3996 94.2024C54.6612 94.2024 54.8982 94.1547 55.1105 94.0593C55.326 93.9608 55.506 93.8208 55.6507 93.6392C55.7984 93.4576 55.9015 93.2391 55.96 92.9837L57.3034 92.9837C57.2541 93.4422 57.1048 93.8516 56.8556 94.2116C56.6063 94.5717 56.2723 94.8549 55.8538 95.0611C55.4383 95.2673 54.9505 95.3704 54.3904 95.3704ZM60.049 92.8221L60.0398 91.1371L60.2798 91.1371L63.1051 88.1364L64.7578 88.1364L61.5355 91.5526L61.3185 91.5526L60.049 92.8221ZM58.7795 95.2273L58.7795 85.7727L60.1598 85.7727L60.1598 95.2273L58.7795 95.2273ZM63.2575 95.2273L60.7184 91.8572L61.6694 90.8924L64.9517 95.2273L63.2575 95.2273ZM70.5076 92.2866L70.5076 88.1364L71.8926 88.1364L71.8926 95.2273L70.5353 95.2273L70.5353 93.9993L70.4615 93.9993C70.2984 94.3778 70.0368 94.6933 69.6767 94.9457C69.3197 95.195 68.8749 95.3196 68.3425 95.3196C67.887 95.3196 67.4838 95.2196 67.133 95.0195C66.7852 94.8164 66.5113 94.5163 66.3113 94.1193C66.1143 93.7223 66.0158 93.2314 66.0158 92.6467L66.0158 88.1364L67.3961 88.1364L67.3961 92.4805C67.3961 92.9637 67.53 93.3484 67.7978 93.6346C68.0655 93.9208 68.4133 94.0639 68.8411 94.0639C69.0996 94.0639 69.3566 93.9993 69.612 93.87C69.8706 93.7408 70.0845 93.5453 70.2537 93.2837C70.4261 93.0221 70.5107 92.6898 70.5076 92.2866ZM73.7472 97.8864L73.7472 88.1364L75.0953 88.1364L75.0953 89.2859L75.2107 89.2859C75.2907 89.1381 75.4061 88.9673 75.5569 88.7734C75.7077 88.5795 75.917 88.4103 76.1847 88.2656C76.4525 88.1179 76.8064 88.044 77.2465 88.044C77.819 88.044 78.3299 88.1887 78.7792 88.478C79.2285 88.7673 79.5809 89.1843 79.8364 89.729C80.0949 90.2738 80.2242 90.9293 80.2242 91.6957C80.2242 92.462 80.0964 93.1191 79.841 93.6669C79.5856 94.2116 79.2347 94.6317 78.7884 94.9272C78.3422 95.2196 77.8328 95.3658 77.2604 95.3658C76.8295 95.3658 76.4771 95.2934 76.2032 95.1488C75.9324 95.0041 75.72 94.8349 75.5661 94.641C75.4123 94.4471 75.2938 94.2747 75.2107 94.1239L75.1276 94.1239L75.1276 97.8864L73.7472 97.8864ZM75.0999 91.6818C75.0999 92.1804 75.1722 92.6174 75.3168 92.9929C75.4615 93.3684 75.6708 93.6623 75.9447 93.8746C76.2186 94.0839 76.5541 94.1886 76.9511 94.1886C77.3635 94.1886 77.7082 94.0793 77.9852 93.8608C78.2622 93.6392 78.4714 93.3391 78.613 92.9606C78.7577 92.582 78.83 92.1558 78.83 91.6818C78.83 91.214 78.7592 90.7939 78.6176 90.4215C78.4791 90.0491 78.2699 89.7552 77.9898 89.5398C77.7128 89.3243 77.3666 89.2166 76.9511 89.2166C76.551 89.2166 76.2124 89.3197 75.9355 89.5259C75.6615 89.7321 75.4538 90.0199 75.3122 90.3892C75.1707 90.7585 75.0999 91.1894 75.0999 91.6818Z" fill="rgb(128,35,58)" fill-rule="nonzero" />
		<circle id="Ellipse 10" cx="42.3334503" cy="32.820755" r="32.320755" stroke="rgb(128,35,58)" stroke-width="1.000000" />
		<g id="ph:storefront-thin" clip-path="url(#clipPath_1)" customFrame="url(#clipPath_1)">
			<rect id="ph:storefront-thin" width="34.133507" height="34.133507" x="26.094727" y="16.641602" fill="rgb(255,255,255)" fill-opacity="0" />
			<path id="Vector" d="M56.4949 29.4281L56.4949 29.3881C56.4842 29.3629 56.4796 29.3355 56.4816 29.3081L56.4683 29.3081L54.5616 22.6014C54.4643 22.2691 54.2627 21.9769 53.9866 21.768C53.7105 21.5592 53.3745 21.4446 53.0282 21.4414L33.2948 21.4414C32.9486 21.4446 32.6126 21.5592 32.3365 21.768C32.0603 21.9769 31.8587 22.2691 31.7615 22.6014L29.8548 29.2948L29.8415 29.2948C29.8434 29.3221 29.8388 29.3495 29.8281 29.3748L29.8281 31.5481C29.8277 32.337 30.0222 33.1137 30.3944 33.8092C30.7666 34.5048 31.3049 35.0975 31.9615 35.5348L31.9615 44.3749C31.9615 44.7992 32.13 45.2062 32.4301 45.5062C32.7302 45.8063 33.1371 45.9749 33.5615 45.9749L52.7616 45.9749C53.1859 45.9749 53.5929 45.8063 53.893 45.5062C54.193 45.2062 54.3616 44.7992 54.3616 44.3749L54.3616 35.5615C55.0182 35.1242 55.5565 34.5314 55.9287 33.8359C56.3008 33.1404 56.4954 32.3636 56.4949 31.5748L56.4949 29.4414L56.4949 29.4281ZM32.7881 22.8947C32.8216 22.7854 32.8884 22.6893 32.9793 22.6199C33.0702 22.5506 33.1805 22.5115 33.2948 22.5081L53.0282 22.5081C53.1425 22.5115 53.2529 22.5506 53.3438 22.6199C53.4346 22.6893 53.5015 22.7854 53.5349 22.8947L55.2549 28.9081L31.0681 28.9081L32.7881 22.8947ZM39.4282 29.9748L46.8949 29.9748L46.8949 31.5748C46.8949 32.5649 46.5015 33.5145 45.8014 34.2147C45.1013 34.9148 44.1517 35.3081 43.1615 35.3081C42.1714 35.3081 41.2218 34.9148 40.5216 34.2147C39.8215 33.5145 39.4282 32.5649 39.4282 31.5748L39.4282 29.9748ZM30.8948 31.5748L30.8948 29.9748L38.3615 29.9748L38.3615 31.5748C38.358 32.5639 37.9635 33.5114 37.2641 34.2108C36.5648 34.9102 35.6172 35.3046 34.6282 35.3081C34.0039 35.3099 33.3894 35.154 32.8415 34.8548C32.7887 34.8116 32.7304 34.7758 32.6681 34.7481C32.1249 34.416 31.6763 33.9496 31.3657 33.3938C31.0551 32.838 30.8929 32.2115 30.8948 31.5748ZM53.2949 44.3749C53.2949 44.5163 53.2387 44.652 53.1387 44.752C53.0387 44.852 52.903 44.9082 52.7616 44.9082L33.5615 44.9082C33.42 44.9082 33.2844 44.852 33.1844 44.752C33.0843 44.652 33.0281 44.5163 33.0281 44.3749L33.0281 36.0948C33.5406 36.2826 34.0824 36.3774 34.6282 36.3748C35.5095 36.3749 36.3738 36.1324 37.1265 35.6737C37.8791 35.2151 38.4909 34.5581 38.8948 33.7748C39.2986 34.5583 39.9104 35.2155 40.663 35.6743C41.4157 36.1331 42.2801 36.3758 43.1615 36.3758C44.043 36.3758 44.9074 36.1331 45.66 35.6743C46.4126 35.2155 47.0244 34.5583 47.4282 33.7748C47.8322 34.5581 48.444 35.2151 49.1966 35.6737C49.9492 36.1324 50.8136 36.3749 51.6949 36.3748C52.2407 36.3774 52.7825 36.2826 53.2949 36.0948L53.2949 44.3749ZM53.6549 34.7481C53.5926 34.7758 53.5343 34.8116 53.4816 34.8548C52.9337 35.154 52.3191 35.3099 51.6949 35.3081C50.7058 35.3046 49.7583 34.9102 49.0589 34.2108C48.3595 33.5114 47.9651 32.5639 47.9615 31.5748L47.9615 29.9748L55.4283 29.9748L55.4283 31.5748C55.4301 32.2115 55.2679 32.838 54.9573 33.3938C54.6467 33.9496 54.1982 34.416 53.6549 34.7481Z" fill="rgb(128,35,58)" fill-rule="nonzero" />
		</g>
	</g>
</svg>
